<svg xmlns="http://www.w3.org/2000/svg" width="400" height="225" viewBox="0 0 400 225">
  <defs>
    <radialGradient id="agentGlow" cx="0.5" cy="0.5" r="0.55">
      <stop offset="0" stop-color="#5eead4" stop-opacity="0.14"/>
      <stop offset="1" stop-color="#5eead4" stop-opacity="0"/>
    </radialGradient>
  </defs>
  <rect width="400" height="225" fill="#0f172a"/>
  <rect width="400" height="225" fill="url(#agentGlow)"/>
  <g stroke="#5eead4" stroke-opacity="0.45" stroke-width="1.6" fill="none">
    <line x1="200" y1="112" x2="110" y2="62"/>
    <line x1="200" y1="112" x2="290" y2="62"/>
    <line x1="200" y1="112" x2="90" y2="160"/>
    <line x1="200" y1="112" x2="310" y2="160"/>
    <line x1="110" y1="62" x2="290" y2="62"/>
    <line x1="90" y1="160" x2="310" y2="160"/>
  </g>
  <circle cx="200" cy="112" r="22" fill="#134e4a" stroke="#5eead4" stroke-width="2"/>
  <circle cx="200" cy="112" r="8" fill="#5eead4"/>
  <circle cx="110" cy="62" r="12" fill="#1b2a4a" stroke="#5eead4" stroke-opacity="0.7" stroke-width="1.6"/>
  <circle cx="290" cy="62" r="12" fill="#1b2a4a" stroke="#5eead4" stroke-opacity="0.7" stroke-width="1.6"/>
  <circle cx="90" cy="160" r="12" fill="#1b2a4a" stroke="#5eead4" stroke-opacity="0.7" stroke-width="1.6"/>
  <circle cx="310" cy="160" r="12" fill="#1b2a4a" stroke="#5eead4" stroke-opacity="0.7" stroke-width="1.6"/>
  <rect x="40" y="36" width="54" height="8" rx="4" fill="#5eead4" opacity="0.25"/>
  <rect x="306" y="182" width="54" height="8" rx="4" fill="#5eead4" opacity="0.25"/>
</svg>
